<svg width="523" height="258" viewBox="0 0 523 258" fill="none" xmlns="http://www.w3.org/2000/svg">
<g clip-path="url(#clip0_156_199)">
<path d="M176.345 221.516L170.37 219.001L166.272 189.06H111.694L107.252 218.879L101.907 221.55C101.651 221.678 101.446 221.888 101.325 222.147C101.204 222.406 101.173 222.698 101.239 222.977C101.305 223.255 101.462 223.503 101.687 223.68C101.911 223.857 102.188 223.954 102.474 223.954H175.852C176.145 223.954 176.429 223.853 176.656 223.667C176.883 223.482 177.038 223.223 177.096 222.936C177.154 222.649 177.111 222.351 176.974 222.092C176.837 221.833 176.615 221.629 176.345 221.516Z" fill="#E6E6E6"/>
<path d="M257.704 191.915H20.8947C15.4327 191.903 10.1986 189.725 6.34079 185.859C2.48294 181.994 0.316381 176.757 0.316406 171.296V150.043H278.282V171.296C278.282 176.757 276.116 181.994 272.258 185.859C268.4 189.725 263.166 191.903 257.704 191.915Z" fill="#CCCCCC"/>
<path d="M278.601 167.49H0V20.619C0.00620218 15.1524 2.18121 9.91148 6.04786 6.04601C9.91452 2.18054 15.157 0.00620028 20.6253 0H257.975C263.443 0.00618708 268.686 2.18053 272.553 6.046C276.419 9.91147 278.594 15.1524 278.601 20.619V167.49Z" fill="#E6E6E6"/>
<path d="M256.388 155.753H22.2116C19.4353 155.75 16.7737 154.646 14.8107 152.683C12.8476 150.721 11.7434 148.06 11.7402 145.285V22.2052C11.7434 19.4298 12.8476 16.769 14.8107 14.8066C16.7737 12.8441 19.4353 11.7402 22.2116 11.7371H256.388C259.165 11.7402 261.826 12.8441 263.789 14.8066C265.752 16.769 266.856 19.4298 266.86 22.2052V145.285C266.857 148.06 265.752 150.721 263.789 152.683C261.826 154.646 259.165 155.75 256.388 155.753Z" fill="white"/>
<path d="M153.459 74.5694C153.459 74.5893 153.46 74.6092 153.461 74.6291C154.107 84.7961 158.603 94.3352 166.034 101.307C173.465 108.278 183.273 112.158 193.463 112.158C203.654 112.158 213.462 108.278 220.893 101.307C228.324 94.3352 232.819 84.796 233.466 74.6291C233.474 74.5033 233.457 74.3772 233.414 74.2586C233.371 74.1401 233.305 74.0315 233.218 73.9399C233.133 73.8486 233.03 73.7758 232.915 73.7263C232.801 73.6767 232.677 73.6514 232.552 73.6519L154.375 73.6519C154.131 73.6525 153.899 73.7494 153.727 73.9214C153.555 74.0934 153.459 74.3265 153.459 74.5694Z" fill="#3F3D56"/>
<path d="M220.176 42.3938C220.176 42.7058 220.052 43.005 219.832 43.2259L192.613 70.4361C192.505 70.5456 192.375 70.6323 192.232 70.6914C192.09 70.7505 191.937 70.7807 191.782 70.7803H154.374C154.213 70.7809 154.054 70.7483 153.907 70.6846C153.76 70.6208 153.627 70.5273 153.518 70.4098C153.407 70.2921 153.322 70.1529 153.267 70.0008C153.212 69.8487 153.189 69.687 153.2 69.5257C153.676 62.0396 156.231 54.8346 160.577 48.7202C164.924 42.6059 170.89 37.8244 177.806 34.9132C184.721 32.002 192.311 31.0763 199.724 32.2402C207.137 33.4041 214.078 36.6115 219.767 41.502C219.89 41.6078 219.989 41.7377 220.06 41.8836C220.13 42.0295 220.169 42.1883 220.176 42.3502C220.176 42.3648 220.176 42.3793 220.176 42.3938Z" fill="#E6E6E6"/>
<path d="M335.669 151.019C335.463 151.238 335.181 151.37 334.881 151.389C334.721 151.4 334.56 151.377 334.409 151.323C334.258 151.268 334.12 151.183 334.003 151.072L309.421 127.951C309.251 127.792 309.133 127.586 309.081 127.36C309.029 127.133 309.045 126.896 309.127 126.679C309.209 126.462 309.354 126.274 309.543 126.139C309.733 126.004 309.958 125.928 310.19 125.921L343.764 124.898C343.924 124.893 344.083 124.921 344.231 124.98C344.38 125.038 344.515 125.126 344.628 125.239C344.742 125.351 344.831 125.485 344.891 125.633C344.951 125.781 344.98 125.94 344.977 126.099C344.777 135.193 341.515 143.954 335.717 150.965C335.702 150.983 335.685 151.002 335.669 151.019Z" fill="#D8C89B"/>
<path d="M179.515 128.193C179.501 129.616 179.064 131.003 178.261 132.179C177.458 133.354 176.324 134.265 175.003 134.796C173.682 135.327 172.233 135.455 170.84 135.163C169.446 134.871 168.17 134.173 167.174 133.156C166.177 132.139 165.505 130.849 165.241 129.451C164.978 128.052 165.135 126.606 165.694 125.297C166.252 123.987 167.186 122.873 168.378 122.094C169.57 121.315 170.967 120.908 172.39 120.922C174.299 120.944 176.121 121.722 177.457 123.085C178.793 124.448 179.533 126.285 179.515 128.193Z" fill="#D8C89B"/>
<path d="M200.084 128.404C200.069 129.827 199.633 131.214 198.83 132.39C198.026 133.565 196.893 134.476 195.572 135.007C194.251 135.538 192.802 135.666 191.408 135.374C190.014 135.082 188.739 134.383 187.742 133.367C186.746 132.35 186.073 131.06 185.81 129.662C185.546 128.263 185.704 126.817 186.262 125.508C186.821 124.198 187.755 123.084 188.947 122.305C190.139 121.526 191.535 121.119 192.959 121.133C194.867 121.155 196.689 121.933 198.025 123.296C199.361 124.659 200.101 126.496 200.084 128.404Z" fill="#3F3D56"/>
<path d="M220.652 128.615C220.638 130.038 220.201 131.425 219.398 132.601C218.595 133.776 217.461 134.687 216.14 135.218C214.819 135.749 213.37 135.877 211.976 135.585C210.583 135.293 209.307 134.594 208.311 133.578C207.314 132.561 206.642 131.271 206.378 129.872C206.115 128.474 206.272 127.028 206.831 125.719C207.389 124.409 208.323 123.295 209.515 122.516C210.707 121.737 212.103 121.33 213.527 121.344C215.436 121.366 217.258 122.144 218.594 123.507C219.929 124.87 220.67 126.707 220.652 128.615Z" fill="#E6E6E6"/>
<path d="M116.429 50.8589L50.377 50.1815C49.7333 50.1743 49.0946 50.2941 48.4973 50.5339C47.9 50.7737 47.3558 51.1288 46.8958 51.5789C46.4359 52.029 46.0691 52.5654 45.8166 53.1572C45.5641 53.7491 45.4307 54.385 45.4241 55.0284C45.4175 55.6718 45.5378 56.3103 45.7781 56.9072C46.0184 57.5042 46.3741 58.0479 46.8247 58.5074C47.2754 58.9668 47.8121 59.333 48.4044 59.585C48.9967 59.837 49.6328 59.9698 50.2764 59.9759L116.329 60.6534C116.973 60.6605 117.611 60.5407 118.209 60.3009C118.806 60.0612 119.35 59.706 119.81 59.2559C120.27 58.8058 120.637 58.2694 120.889 57.6776C121.142 57.0857 121.275 56.4498 121.282 55.8064C121.288 55.163 121.168 54.5245 120.928 53.9276C120.687 53.3306 120.332 52.7869 119.881 52.3274C119.43 51.868 118.894 51.5018 118.301 51.2498C117.709 50.9978 117.073 50.865 116.429 50.8589Z" fill="#E6E6E6"/>
<path d="M116.154 77.6199L50.1014 76.9425C48.9802 76.9289 47.8883 77.3005 47.0082 77.9951C46.1282 78.6898 45.5134 79.6654 45.2665 80.7589C45.0197 81.8523 45.1559 82.9974 45.6523 84.0025C46.1486 85.0077 46.9751 85.812 47.9936 86.281C48.6222 86.5753 49.3068 86.7308 50.0009 86.7369L116.053 87.4144C116.697 87.4219 117.336 87.3024 117.934 87.0628C118.531 86.8232 119.076 86.4681 119.536 86.018C119.997 85.5678 120.364 85.0314 120.616 84.4393C120.869 83.8472 121.002 83.2111 121.009 82.5675C121.016 81.9238 120.895 81.2851 120.655 80.688C120.414 80.0908 120.058 79.547 119.607 79.0875C119.156 78.628 118.619 78.2618 118.027 78.01C117.434 77.7582 116.798 77.6256 116.154 77.6199V77.6199Z" fill="#E6E6E6"/>
<path d="M115.879 104.381L49.8262 103.704C49.1825 103.697 48.5438 103.816 47.9465 104.056C47.3492 104.296 46.805 104.651 46.345 105.101C45.8851 105.551 45.5183 106.088 45.2658 106.679C45.0133 107.271 44.8799 107.907 44.8733 108.551C44.8667 109.194 44.987 109.833 45.2273 110.429C45.4677 111.026 45.8233 111.57 46.2739 112.03C46.7246 112.489 47.2614 112.855 47.8536 113.107C48.4459 113.359 49.082 113.492 49.7257 113.498L115.778 114.176C116.422 114.183 117.061 114.064 117.659 113.824C118.256 113.584 118.801 113.229 119.261 112.779C119.721 112.329 120.088 111.793 120.341 111.2C120.594 110.608 120.727 109.972 120.734 109.329C120.74 108.685 120.62 108.046 120.38 107.449C120.139 106.852 119.783 106.308 119.332 105.849C118.881 105.389 118.344 105.023 117.752 104.771C117.159 104.519 116.522 104.387 115.879 104.381Z" fill="#E6E6E6"/>
<path d="M97.6324 50.6661L50.377 50.1815C49.7333 50.1743 49.0946 50.2941 48.4973 50.5339C47.9 50.7737 47.3558 51.1288 46.8958 51.5789C46.4359 52.029 46.0691 52.5654 45.8166 53.1572C45.5641 53.7491 45.4307 54.385 45.4241 55.0284C45.4175 55.6718 45.5378 56.3103 45.7781 56.9072C46.0184 57.5042 46.3741 58.0479 46.8247 58.5074C47.2754 58.9668 47.8121 59.333 48.4044 59.585C48.9967 59.837 49.6328 59.9698 50.2764 59.9759L96.5473 60.4505C97.4874 60.0766 98.308 59.4542 98.9214 58.6498C99.5348 57.8454 99.9177 56.8893 100.029 55.8841C100.141 54.8788 99.9765 53.8621 99.5543 52.9429C99.1321 52.0238 98.4678 51.2367 97.6324 50.6661Z" fill="#D8C89B"/>
<path d="M75.5331 77.2033L50.1014 76.9425C48.9802 76.9289 47.8883 77.3005 47.0082 77.9951C46.1282 78.6898 45.5134 79.6654 45.2665 80.7589C45.0197 81.8523 45.1559 82.9974 45.6523 84.0025C46.1486 85.0077 46.9751 85.812 47.9936 86.281L71.3522 86.5206C72.8314 86.5352 74.2558 85.9621 75.3125 84.9273C76.3691 83.8924 76.9715 82.4804 76.9871 81.0017C77.0095 79.5957 76.4887 78.2352 75.5331 77.2033Z" fill="#D8C89B"/>
<path d="M110.943 104.33L49.8262 103.704C49.1825 103.697 48.5438 103.816 47.9465 104.056C47.3492 104.296 46.805 104.651 46.345 105.101C45.8851 105.551 45.5183 106.088 45.2658 106.679C45.0133 107.271 44.8799 107.907 44.8733 108.551C44.8667 109.194 44.987 109.833 45.2273 110.429C45.4677 111.026 45.8233 111.57 46.2739 112.03C46.7246 112.489 47.2614 112.855 47.8536 113.107C48.4459 113.359 49.082 113.492 49.7257 113.498L111.237 114.129C112.108 113.627 112.827 112.898 113.318 112.02C113.808 111.142 114.051 110.147 114.021 109.142C113.991 108.137 113.689 107.159 113.147 106.311C112.605 105.464 111.843 104.78 110.943 104.33H110.943Z" fill="#D8C89B"/>
<path d="M366.278 250.648L359.134 250.647L355.736 223.101L366.28 223.101L366.278 250.648Z" fill="#FFCEB3"/>
<path d="M354.03 248.607H367.808V257.279H345.355C345.355 256.14 345.58 255.012 346.016 253.96C346.452 252.908 347.091 251.952 347.896 251.147C348.702 250.341 349.658 249.703 350.71 249.267C351.763 248.831 352.891 248.607 354.03 248.607Z" fill="#222222"/>
<path d="M441.752 245.308L434.848 247.142L424.484 221.393L434.674 218.685L441.752 245.308Z" fill="#FFCEB3"/>
<path d="M429.391 246.48L442.707 242.943L444.935 251.324L423.236 257.089C422.645 254.866 422.961 252.499 424.116 250.51C425.27 248.52 427.168 247.071 429.391 246.48Z" fill="#222222"/>
<path d="M396.783 50.0792C405.26 50.0792 412.131 43.2099 412.131 34.736C412.131 26.2622 405.26 19.3928 396.783 19.3928C388.307 19.3928 381.436 26.2622 381.436 34.736C381.436 43.2099 388.307 50.0792 396.783 50.0792Z" fill="#FFCEB3"/>
<path d="M426.593 238.955L404.185 194.461L383.178 146.302L373.119 187.469L371.579 236.413C371.562 237.088 371.3 237.733 370.843 238.231C370.387 238.728 369.765 239.043 369.094 239.117C363.847 239.73 354.973 240.265 354.497 236.961C347.949 191.59 348.911 165.793 350.872 152.142C353.007 137.276 356.673 133.229 356.828 133.064L356.933 132.953L411.572 137.947L411.781 137.967L426.464 185.553L444.002 233.577C444.136 233.945 444.192 234.338 444.166 234.73C444.139 235.121 444.031 235.503 443.848 235.85C443.665 236.197 443.412 236.503 443.104 236.746C442.796 236.989 442.441 237.166 442.06 237.263L429.805 240.414C429.579 240.472 429.347 240.501 429.114 240.501C428.592 240.501 428.08 240.356 427.635 240.083C427.191 239.81 426.83 239.42 426.593 238.955Z" fill="#222222"/>
<path d="M430.021 134.094L423.342 94.0362L424.988 84.1183C426.388 75.6808 425.13 67.0168 421.389 59.325L412.166 103.039L423.957 135.876C423.018 136.875 422.433 138.156 422.294 139.52C422.155 140.884 422.469 142.256 423.187 143.424C423.905 144.592 424.988 145.492 426.268 145.984C427.549 146.476 428.955 146.532 430.271 146.146C431.587 145.759 432.739 144.95 433.55 143.844C434.36 142.737 434.784 141.395 434.755 140.024C434.726 138.653 434.247 137.33 433.392 136.258C432.536 135.186 431.351 134.426 430.021 134.094Z" fill="#FFCEB3"/>
<path d="M363.167 94.3041L343.183 129.66C341.817 129.516 340.442 129.825 339.27 130.54C338.098 131.254 337.194 132.335 336.697 133.614C336.2 134.894 336.139 136.301 336.522 137.62C336.905 138.938 337.711 140.093 338.816 140.907C339.921 141.722 341.264 142.15 342.637 142.125C344.01 142.101 345.336 141.625 346.412 140.772C347.487 139.919 348.252 138.736 348.588 137.405C348.924 136.074 348.812 134.67 348.27 133.409L370.588 106.586L376.882 62.3557C370.734 68.3037 366.588 76.0147 365.015 84.4219L363.167 94.3041Z" fill="#FFCEB3"/>
<path d="M408.218 142.166L358.376 136.725C357.687 136.65 357.025 136.413 356.444 136.035C355.863 135.657 355.379 135.148 355.032 134.548C354.684 133.949 354.482 133.276 354.443 132.584C354.403 131.892 354.527 131.2 354.804 130.565L363.283 111.139C365.644 105.727 367.34 100.048 368.334 94.2277L369.224 89.012C369.917 84.7233 370.001 80.358 369.471 76.0459C369.255 73.8401 369.353 71.6148 369.763 69.4366C370.147 67.26 371.151 65.2402 372.652 63.6181C374.154 61.996 376.091 60.8401 378.232 60.2885L387.309 57.9416L387.557 57.2651C387.775 56.6648 388.169 56.1437 388.686 55.769C389.204 55.3943 389.822 55.1832 390.46 55.1628C390.916 55.1432 391.37 55.2248 391.79 55.4016L396.052 57.1513L405.365 52.6222C405.663 52.4772 405.98 52.3752 406.307 52.3193C407.123 52.1778 407.962 52.3301 408.677 52.7493C409.391 53.1685 409.933 53.8273 410.207 54.6086L410.302 54.8776L418.646 54.9752C420.545 54.9991 422.37 55.7161 423.777 56.9912C425.184 58.2663 426.077 60.0117 426.287 61.8987L426.9 67.4573L415.766 103.351C412.716 113.227 411.96 123.669 413.556 133.881L413.919 136.19C414.036 136.93 413.991 137.688 413.787 138.41C413.584 139.131 413.226 139.801 412.739 140.371C412.252 140.942 411.648 141.401 410.967 141.716C410.286 142.031 409.545 142.195 408.795 142.197C408.603 142.197 408.41 142.187 408.218 142.166Z" fill="#3F3D56"/>
<path d="M418.41 64.0007L423.994 63.1838L425.697 65.1827C426.6 66.2456 427.123 67.5791 427.183 68.9724L427.979 88.1672C428.025 89.212 427.805 90.2514 427.339 91.188C426.874 92.1246 426.178 92.9277 425.317 93.5219L409.049 104.816L418.41 64.0007Z" fill="#3F3D56"/>
<path d="M363.603 92.7875C362.963 91.9596 362.545 90.983 362.386 89.9491C362.227 88.9152 362.334 87.8581 362.696 86.8766L369.292 68.8327C369.773 67.5238 370.677 66.4125 371.86 65.6744L374.091 64.2881L379.161 66.7634L375.665 108.492L363.603 92.7875Z" fill="#3F3D56"/>
<path d="M402.497 28.4298C398.211 32.3082 392.098 34.5441 386.521 33.0222C380.943 31.5003 376.564 25.5487 377.9 19.9258C379.237 14.3029 387.145 11.1245 391.43 15.0037C399.174 8.88087 411.627 9.9387 418.226 17.2801C424.826 24.6215 424.553 37.112 417.638 44.158C413.553 48.321 405.895 48.0968 402.06 43.7022C398.226 39.3075 399.044 31.6917 402.497 28.4298Z" fill="#222222"/>
<path d="M522.376 258H284.293C284.127 258 283.968 257.934 283.851 257.817C283.734 257.7 283.668 257.541 283.668 257.375C283.668 257.21 283.734 257.051 283.851 256.933C283.968 256.816 284.127 256.75 284.293 256.75H522.376C522.541 256.75 522.7 256.816 522.817 256.933C522.935 257.051 523 257.21 523 257.375C523 257.541 522.935 257.7 522.817 257.817C522.7 257.934 522.541 258 522.376 258Z" fill="#CCCCCC"/>
<path d="M259.923 224.266H21.8397C21.674 224.266 21.5151 224.2 21.3979 224.083C21.2807 223.966 21.2148 223.807 21.2148 223.642C21.2148 223.476 21.2807 223.317 21.3979 223.2C21.5151 223.083 21.674 223.017 21.8397 223.017H259.923C260.088 223.017 260.247 223.083 260.364 223.2C260.482 223.317 260.547 223.476 260.547 223.642C260.547 223.807 260.482 223.966 260.364 224.083C260.247 224.2 260.088 224.266 259.923 224.266Z" fill="#CCCCCC"/>
</g>
<defs>
<clipPath id="clip0_156_199">
<rect width="523" height="258" fill="white"/>
</clipPath>
</defs>
</svg>
