<svg width="558" height="298" viewBox="0 0 558 298" fill="none" xmlns="http://www.w3.org/2000/svg">
<path d="M1 296.1H556.8" stroke="#222222" stroke-width="2" stroke-miterlimit="10" stroke-linecap="round" stroke-linejoin="round"/>
<path d="M57.0005 168C57.0005 168 31.0005 169.7 36.9005 191.3C42.8005 212.9 67.6005 283 67.6005 283C67.6005 283 71.6005 294.4 79.8005 295C88.0005 295.6 224.6 295 224.6 295C224.6 295 241.8 286.5 235.5 267.9C229.2 249.3 208.1 188 208.1 188C208.1 188 204.8 167 184.3 168C163.8 169 57.0005 168 57.0005 168Z" fill="#007CC0"/>
<path d="M139.412 245.253C145.217 243.882 148.205 235.494 146.085 226.518C143.966 217.542 137.542 211.377 131.737 212.748C125.932 214.119 122.945 222.506 125.064 231.482C127.184 240.458 133.608 246.623 139.412 245.253Z" fill="white"/>
<path d="M142.819 240.652C148.624 239.281 151.611 230.894 149.492 221.918C147.372 212.942 140.948 206.777 135.143 208.147C129.339 209.518 126.351 217.906 128.47 226.881C130.59 235.857 137.014 242.023 142.819 240.652Z" stroke="#007CC0" stroke-miterlimit="10"/>
<path d="M249.602 171.9C249.602 171.9 277.602 169.3 277.602 165.6C277.602 161.9 279.002 150.8 275.102 148.8C271.202 146.8 247.502 146.9 247.502 146.9C247.502 146.9 246.602 149.7 244.302 150.5C241.902 151.3 233.302 154.6 237.602 160.7C241.902 166.8 249.602 171.9 249.602 171.9Z" fill="white"/>
<path d="M359.4 98.7C359.4 98.7 375.7 87.3 387.2 101.8" stroke="#007CC0" stroke-width="1.6883" stroke-miterlimit="10" stroke-linecap="round" stroke-linejoin="round"/>
<path d="M259.101 146.9C259.101 146.9 246.001 154.6 252.501 167.4" stroke="#222222" stroke-width="2" stroke-miterlimit="10" stroke-linecap="round" stroke-linejoin="round"/>
<path d="M250.702 145.8C250.702 145.8 237.802 156.3 248.302 168.7" stroke="#222222" stroke-width="2" stroke-miterlimit="10" stroke-linecap="round" stroke-linejoin="round"/>
<path d="M247.401 171.9C247.401 171.9 239.101 165.4 237.401 160.7C235.901 156.4 236.701 151.7 247.001 149.9" stroke="#222222" stroke-width="2" stroke-miterlimit="10" stroke-linecap="round" stroke-linejoin="round"/>
<path d="M426.499 87.5C426.499 87.5 428.499 74.7 429.499 73.1C430.499 71.4 432.299 66 440.799 68.3C449.299 70.6 458.199 73.9 463.699 74.3C469.199 74.7 480.299 77.1 479.099 85.4C477.899 93.7 473.799 101.1 473.799 101.1C473.799 101.1 470.499 110.5 456.099 102.1L439.899 112.7L445.999 100.1L429.799 97.4C429.799 97.4 424.199 96.9 426.699 88.9" fill="white"/>
<path d="M426.499 87.5C426.499 87.5 428.499 74.7 429.499 73.1C430.499 71.4 432.299 66 440.799 68.3C449.299 70.6 458.199 73.9 463.699 74.3C469.199 74.7 480.299 77.1 479.099 85.4C477.899 93.7 473.799 101.1 473.799 101.1C473.799 101.1 470.499 110.5 456.099 102.1L439.899 112.7L445.999 100.1L429.799 97.4C429.799 97.4 424.199 96.9 426.699 88.9" stroke="#D8C89B" stroke-width="2" stroke-miterlimit="10"/>
<path d="M429.2 1C415.9 1 388.3 7.1 385.6 13.1C382.9 19.1 383.7 22.9 384.4 28.3C385.1 33.8 385.8 46 403.3 45C420.9 44 436.9 39.4 436.9 39.4C436.9 39.4 444.7 38.1 443.5 25.6C442.3 13.1 438.5 3.4 438.5 3.4" fill="white"/>
<path d="M429.2 1C415.9 1 388.3 7.1 385.6 13.1C382.9 19.1 383.7 22.9 384.4 28.3C385.1 33.8 385.8 46 403.3 45C420.9 44 436.9 39.4 436.9 39.4C436.9 39.4 444.7 38.1 443.5 25.6C442.3 13.1 438.5 3.4 438.5 3.4" stroke="#D8C89B" stroke-width="2" stroke-miterlimit="10"/>
<path d="M356.9 251.1L350 295.1H461.6L428.3 245.2L356.9 251.1Z" fill="white" stroke="#222222" stroke-width="2" stroke-miterlimit="10" stroke-linecap="round" stroke-linejoin="round"/>
<path d="M329.201 295.1C329.201 295.1 315.601 278.2 357.601 266.4C399.501 254.6 448.201 256.2 448.201 256.2L468.001 274.7L452.401 295.1H372.601C372.601 295.1 368.701 294.6 364.701 290.6C360.601 286.5 352.501 295.2 350.001 295.1C347.501 295.1 329.201 295.1 329.201 295.1Z" fill="white" stroke="#222222" stroke-width="2" stroke-miterlimit="10" stroke-linecap="round" stroke-linejoin="round"/>
<path d="M329.201 295.1C329.201 295.1 330.601 276.1 356.701 272.2" stroke="#222222" stroke-width="2" stroke-miterlimit="10" stroke-linecap="round" stroke-linejoin="round"/>
<path d="M334.9 295.1C334.9 295.1 337.2 280 363.5 275.6" stroke="#222222" stroke-width="2" stroke-miterlimit="10" stroke-linecap="round" stroke-linejoin="round"/>
<path d="M341.801 295.1C341.801 295.1 347.601 282.9 367.201 281.7" stroke="#222222" stroke-width="2" stroke-miterlimit="10" stroke-linecap="round" stroke-linejoin="round"/>
<path d="M482.001 217.9L338.001 168.7L335.801 167.9C335.801 167.9 286.501 155 308.001 128.4C314.101 123.4 329.701 116.7 328.701 97.9C327.701 79.1 344.801 46.9 385.101 61.1C389.101 62.5 392.801 64.1 396.201 65.7C426.401 80.6 431.001 104.7 436.301 132.7C442.101 163.8 466.601 154.6 472.201 156.9C477.801 159.4 510.601 183 482.001 217.9Z" fill="#D8C89B" stroke="#222222" stroke-width="2" stroke-miterlimit="10"/>
<path d="M395.501 67.8C364.401 58.1 335.001 69.7 334.801 93.1C334.601 120.3 323.401 124.6 313.901 135.2C304.401 145.8 320.901 154.8 329.301 158.9C334.301 161.3 337.001 165.2 338.401 168L336.201 167.3C336.201 167.3 287.801 154.7 308.901 128.8C314.801 123.9 330.201 117.4 329.201 99.1C328.201 80.8 345.001 49.4 384.601 63.3C388.501 64.6 392.201 66.1 395.501 67.8Z" fill="white"/>
<path d="M336.4 239.1C336.4 239.1 338.6 247 350.5 246.2C350.5 246.2 348.6 254.9 356.4 254.5L430.2 248C430.2 248 437.2 241.4 439.4 233.9L453.2 255.2H440.8C440.8 255.2 468.5 270.4 450.1 296.1H499.9C499.9 296.1 521 283 512.2 264.4C503.4 245.8 453.3 170.8 453.3 170.8C453.3 170.8 412.8 186.3 403.1 187.9C393.4 189.5 350.3 191.7 336.3 188.1C322.4 184.5 315.7 182.5 315.7 182.5L292.3 215.1L248.6 232.8C248.6 232.8 236.3 260.4 246 282.4C257 307.4 291.5 298.3 336.4 239.1Z" fill="#222222"/>
<path d="M247 139.2C243.1 139.4 235.2 147.9 247 148.7C258.8 149.5 265.4 147.9 271 153.7C276.6 159.5 274.5 161.6 269.3 163C264.1 164.4 253.4 163.8 249.5 167.5C245.6 171.2 242.3 175.4 247.4 175.6C252.6 175.8 261.9 175.2 265 177.5C268.1 179.8 268.1 181.4 268.1 181.4L249.3 233.9C249.3 233.9 261 255.2 287.1 234.5L301.2 182.6C301.2 182.6 308.6 155.4 296 150.1C286.8 146.4 269.3 138 247 139.2Z" fill="white" stroke="#222222" stroke-width="2" stroke-miterlimit="10" stroke-linecap="round" stroke-linejoin="round"/>
<path d="M267.102 179.4C267.102 179.4 269.702 182.4 272.802 183.3C275.902 184.2 279.702 184.9 283.002 180.1" stroke="#222222" stroke-width="2" stroke-miterlimit="10" stroke-linecap="round" stroke-linejoin="round"/>
<path d="M347.901 95.6C347.901 95.6 356.801 90.6 362.201 81.5C362.201 81.5 373.001 120.6 393.001 124.7C393.001 124.7 403.301 117.1 408.901 119.7C414.501 122.4 412.601 129.8 411.801 132.3C411.001 134.8 402.101 141.4 393.201 136C393.201 136 395.301 159.8 402.101 160.4C408.901 161 438.301 148.4 452.101 171.8C452.101 171.8 385.501 207.2 316.701 182.6C316.701 182.6 328.501 154.3 364.901 162.1L362.001 151.1C362.001 151.1 333.701 154.2 338.801 120.9" fill="white"/>
<path d="M347.901 95.6C347.901 95.6 356.801 90.6 362.201 81.5C362.201 81.5 373.001 120.6 393.001 124.7C393.001 124.7 403.301 117.1 408.901 119.7C414.501 122.4 412.601 129.8 411.801 132.3C411.001 134.8 402.101 141.4 393.201 136C393.201 136 395.301 159.8 402.101 160.4C408.901 161 438.301 148.4 452.101 171.8C452.101 171.8 385.501 207.2 316.701 182.6C316.701 182.6 328.501 154.3 364.901 162.1L362.001 151.1C362.001 151.1 333.701 154.2 338.801 120.9" stroke="#222222" stroke-width="2" stroke-miterlimit="10" stroke-linecap="round" stroke-linejoin="round"/>
<path d="M366.401 169.4C366.401 169.4 364.401 160.5 364.201 159.7" stroke="#222222" stroke-width="2" stroke-miterlimit="10" stroke-linecap="round" stroke-linejoin="round"/>
<path d="M240.2 121.8C247.8 122.3 225.2 123.9 227.7 126.7C230.2 129.5 254.1 149.5 275.8 135.7C297.5 121.8 280.8 107.5 280.8 107.5C280.8 107.5 289.6 104 288.1 103C286.7 101.9 280.1 101.1 280.1 101.1C280.1 101.1 284.4 91.9 283.5 91.1C282.6 90.3 277.4 95 276.1 95.5C274.8 96.1 263.7 88.5 254.8 101.1L240.8 90C240.8 90 234.1 83.4 230.4 90C226.7 96.6 227.1 108.2 231.9 110.9C231.9 110.9 235.4 121.6 240.2 121.8Z" fill="white" stroke="#222222" stroke-width="2" stroke-miterlimit="10" stroke-linecap="round" stroke-linejoin="round"/>
<path d="M241.701 122.2C241.701 122.2 246.801 126 250.701 121.2" stroke="#222222" stroke-width="2" stroke-miterlimit="10" stroke-linecap="round" stroke-linejoin="round"/>
<path d="M254.002 100.4L261.602 106.4" stroke="#222222" stroke-width="2" stroke-miterlimit="10" stroke-linecap="round" stroke-linejoin="round"/>
<path d="M269.602 103.1C270.706 103.1 271.602 102.205 271.602 101.1C271.602 99.9954 270.706 99.1 269.602 99.1C268.497 99.1 267.602 99.9954 267.602 101.1C267.602 102.205 268.497 103.1 269.602 103.1Z" fill="#222222"/>
<path d="M252.301 25.1L255.901 72.3C255.901 72.3 277.101 69.8 282.401 69.4C287.601 69 313.101 69.3 314.801 69.5C316.501 69.7 325.001 70.4 325.101 60.5C325.201 50.6 324.001 14.3 324.001 14.3" fill="white"/>
<path d="M252.301 25.1L255.901 72.3C255.901 72.3 277.101 69.8 282.401 69.4C287.601 69 313.101 69.3 314.801 69.5C316.501 69.7 325.001 70.4 325.101 60.5C325.201 50.6 324.001 14.3 324.001 14.3" stroke="#D8C89B" stroke-width="2" stroke-miterlimit="10"/>
<path d="M314.4 14.3L255.6 18C255.6 18 250 18.9 253.4 22.6C256.8 26.3 290 48.9 290 48.9L316.8 21.8L314.4 14.3Z" fill="white" stroke="#D8C89B" stroke-width="2" stroke-miterlimit="10"/>
<path d="M197.801 43.4C195.201 43.6 181.401 43.8 183.901 58.8C186.401 73.8 186.801 72.4 186.801 72.4C186.801 72.4 192.701 84.9 209.501 75.7L224.501 88.2L220.201 73.5C220.201 73.5 242.501 76.5 242.201 64C241.901 51.5 241.101 46.5 241.101 46.5C241.101 46.5 238.601 36 226.201 38.1C213.801 40.2 201.601 43 197.801 43.4Z" fill="white" stroke="#D8C89B" stroke-width="2" stroke-miterlimit="10"/>
<path d="M370.4 129.7C378.132 129.7 384.4 123.432 384.4 115.7C384.4 107.968 378.132 101.7 370.4 101.7C362.668 101.7 356.4 107.968 356.4 115.7C356.4 123.432 362.668 129.7 370.4 129.7Z" fill="white" stroke="#222222" stroke-width="2" stroke-miterlimit="10" stroke-linecap="round" stroke-linejoin="round"/>
<path d="M341.101 118.8C347.949 118.8 353.501 113.248 353.501 106.4C353.501 99.5517 347.949 94 341.101 94C334.253 94 328.701 99.5517 328.701 106.4C328.701 113.248 334.253 118.8 341.101 118.8Z" fill="white" stroke="#222222" stroke-width="2" stroke-miterlimit="10" stroke-linecap="round" stroke-linejoin="round"/>
<path d="M348.201 133C348.201 133 354.801 135.1 359.401 129.7" stroke="#222222" stroke-width="2" stroke-miterlimit="10" stroke-linecap="round" stroke-linejoin="round"/>
<path d="M359.4 101.8C359.4 101.8 365 95.8 376.1 98.1" stroke="#222222" stroke-width="2" stroke-miterlimit="10" stroke-linecap="round" stroke-linejoin="round"/>
<path d="M362 151.2C362 151.2 372.5 151.9 380.4 144.1" stroke="#222222" stroke-width="2" stroke-miterlimit="10" stroke-linecap="round" stroke-linejoin="round"/>
<path d="M398.1 131.6L406.7 127.3" stroke="#222222" stroke-width="2" stroke-miterlimit="10" stroke-linecap="round" stroke-linejoin="round"/>
<path d="M373.366 115.746C373.82 113.078 372.909 110.697 371.33 110.428C369.752 110.159 368.103 112.103 367.648 114.771C367.193 117.438 368.104 119.819 369.683 120.089C371.262 120.358 372.911 118.413 373.366 115.746Z" fill="#222222"/>
<path d="M349.463 109.27C350.254 106.682 349.654 104.205 348.122 103.736C346.591 103.268 344.708 104.987 343.917 107.575C343.126 110.163 343.726 112.64 345.258 113.108C346.789 113.576 348.672 111.858 349.463 109.27Z" fill="#222222"/>
</svg>
