<svg width="664" height="433" viewBox="0 0 664 433" fill="none" xmlns="http://www.w3.org/2000/svg">
<path d="M56.6992 358.8H612.499" stroke="#222222" stroke-width="2" stroke-miterlimit="10" stroke-linecap="round" stroke-linejoin="round"/>
<path d="M112.7 230.7C112.7 230.7 86.6997 232.4 92.5997 254C98.4997 275.6 123.3 345.7 123.3 345.7C123.3 345.7 127.3 357.1 135.5 357.7C143.7 358.3 280.3 357.7 280.3 357.7C280.3 357.7 297.5 349.2 291.2 330.6C284.9 312 263.8 250.7 263.8 250.7C263.8 250.7 260.5 229.7 240 230.7C219.5 231.7 112.7 230.7 112.7 230.7Z" fill="#007CC0"/>
<path d="M195.112 307.953C200.916 306.582 203.904 298.194 201.785 289.218C199.665 280.242 193.241 274.077 187.436 275.448C181.632 276.819 178.644 285.206 180.763 294.182C182.883 303.158 189.307 309.323 195.112 307.953Z" fill="white"/>
<path d="M198.518 303.352C204.323 301.981 207.31 293.594 205.191 284.618C203.071 275.642 196.647 269.477 190.843 270.847C185.038 272.218 182.05 280.606 184.17 289.581C186.289 298.557 192.713 304.723 198.518 303.352Z" stroke="#007CC0" stroke-miterlimit="10"/>
<path d="M305.301 234.6C305.301 234.6 333.301 232 333.301 228.3C333.301 224.6 334.701 213.5 330.801 211.5C326.901 209.5 303.201 209.6 303.201 209.6C303.201 209.6 302.301 212.4 300.001 213.2C297.601 214 289.001 217.3 293.301 223.4C297.601 229.5 305.301 234.6 305.301 234.6Z" fill="white"/>
<path d="M415.1 161.4C415.1 161.4 431.4 150 442.9 164.5" stroke="#007CC0" stroke-width="1.6883" stroke-miterlimit="10" stroke-linecap="round" stroke-linejoin="round"/>
<path d="M314.8 209.6C314.8 209.6 301.7 217.3 308.2 230.1" stroke="#222222" stroke-width="2" stroke-miterlimit="10" stroke-linecap="round" stroke-linejoin="round"/>
<path d="M306.401 208.5C306.401 208.5 293.501 219 304.001 231.4" stroke="#222222" stroke-width="2" stroke-miterlimit="10" stroke-linecap="round" stroke-linejoin="round"/>
<path d="M303.101 234.6C303.101 234.6 294.801 228.1 293.101 223.4C291.601 219.1 292.401 214.4 302.701 212.6" stroke="#222222" stroke-width="2" stroke-miterlimit="10" stroke-linecap="round" stroke-linejoin="round"/>
<path d="M482.199 150.2C482.199 150.2 484.199 137.4 485.199 135.8C486.199 134.1 487.999 128.7 496.499 131C504.999 133.3 513.899 136.6 519.399 137C524.899 137.4 535.999 139.8 534.799 148.1C533.599 156.4 529.499 163.8 529.499 163.8C529.499 163.8 526.199 173.2 511.799 164.8L495.599 175.4L501.699 162.8L485.499 160.1C485.499 160.1 479.899 159.6 482.399 151.6" fill="white"/>
<path d="M482.199 150.2C482.199 150.2 484.199 137.4 485.199 135.8C486.199 134.1 487.999 128.7 496.499 131C504.999 133.3 513.899 136.6 519.399 137C524.899 137.4 535.999 139.8 534.799 148.1C533.599 156.4 529.499 163.8 529.499 163.8C529.499 163.8 526.199 173.2 511.799 164.8L495.599 175.4L501.699 162.8L485.499 160.1C485.499 160.1 479.899 159.6 482.399 151.6" stroke="#D8C89B" stroke-width="2" stroke-miterlimit="10"/>
<path d="M484.899 63.7C471.599 63.7 443.999 69.8 441.299 75.8C438.599 81.8 439.399 85.6 440.099 91C440.799 96.5 441.499 108.7 458.999 107.7C476.599 106.7 492.599 102.1 492.599 102.1C492.599 102.1 500.399 100.8 499.199 88.3C497.999 75.8 494.199 66.1 494.199 66.1" fill="white"/>
<path d="M484.899 63.7C471.599 63.7 443.999 69.8 441.299 75.8C438.599 81.8 439.399 85.6 440.099 91C440.799 96.5 441.499 108.7 458.999 107.7C476.599 106.7 492.599 102.1 492.599 102.1C492.599 102.1 500.399 100.8 499.199 88.3C497.999 75.8 494.199 66.1 494.199 66.1" stroke="#D8C89B" stroke-width="2" stroke-miterlimit="10"/>
<path d="M412.599 313.8L405.699 357.8H517.299L483.999 307.9L412.599 313.8Z" fill="white" stroke="#222222" stroke-width="2" stroke-miterlimit="10" stroke-linecap="round" stroke-linejoin="round"/>
<path d="M384.9 357.8C384.9 357.8 371.3 340.9 413.3 329.1C455.2 317.3 503.9 318.9 503.9 318.9L523.7 337.4L508.1 357.8H428.3C428.3 357.8 424.4 357.3 420.4 353.3C416.3 349.2 408.2 357.9 405.7 357.8C403.2 357.8 384.9 357.8 384.9 357.8Z" fill="white" stroke="#222222" stroke-width="2" stroke-miterlimit="10" stroke-linecap="round" stroke-linejoin="round"/>
<path d="M384.9 357.8C384.9 357.8 386.3 338.8 412.4 334.9" stroke="#222222" stroke-width="2" stroke-miterlimit="10" stroke-linecap="round" stroke-linejoin="round"/>
<path d="M390.6 357.8C390.6 357.8 392.9 342.7 419.2 338.3" stroke="#222222" stroke-width="2" stroke-miterlimit="10" stroke-linecap="round" stroke-linejoin="round"/>
<path d="M397.5 357.8C397.5 357.8 403.3 345.6 422.9 344.4" stroke="#222222" stroke-width="2" stroke-miterlimit="10" stroke-linecap="round" stroke-linejoin="round"/>
<path d="M537.7 280.6L393.7 231.4L391.5 230.6C391.5 230.6 342.2 217.7 363.7 191.1C369.8 186.1 385.4 179.4 384.4 160.6C383.4 141.8 400.5 109.6 440.8 123.8C444.8 125.2 448.5 126.8 451.9 128.4C482.1 143.3 486.7 167.4 492 195.4C497.8 226.5 522.3 217.3 527.9 219.6C533.5 222.1 566.3 245.7 537.7 280.6Z" fill="#D8C89B" stroke="#222222" stroke-width="2" stroke-miterlimit="10"/>
<path d="M451.2 130.5C420.1 120.8 390.7 132.4 390.5 155.8C390.3 183 379.1 187.3 369.6 197.9C360.1 208.5 376.6 217.5 385 221.6C390 224 392.7 227.9 394.1 230.7L391.9 230C391.9 230 343.5 217.4 364.6 191.5C370.5 186.6 385.9 180.1 384.9 161.8C383.9 143.5 400.7 112.1 440.3 126C444.2 127.3 447.9 128.8 451.2 130.5Z" fill="white"/>
<path d="M392.099 301.8C392.099 301.8 394.299 309.7 406.2 308.9C406.2 308.9 404.299 317.6 412.099 317.2L485.899 310.7C485.899 310.7 492.9 304.1 495.1 296.6L508.899 317.9H496.499C496.499 317.9 524.199 333.1 505.799 358.8H555.599C555.599 358.8 576.699 345.7 567.9 327.1C559.1 308.5 508.999 233.5 508.999 233.5C508.999 233.5 468.499 249 458.799 250.6C449.099 252.2 405.999 254.4 391.999 250.8C378.099 247.2 371.399 245.2 371.399 245.2L347.999 277.8L304.299 295.5C304.299 295.5 292 323.1 301.7 345.1C312.7 370.1 347.199 361 392.099 301.8Z" fill="#222222"/>
<path d="M302.699 201.9C298.799 202.1 290.899 210.6 302.699 211.4C314.499 212.2 321.099 210.6 326.699 216.4C332.299 222.2 330.199 224.3 324.999 225.7C319.799 227.1 309.099 226.5 305.199 230.2C301.299 233.9 297.999 238.1 303.099 238.3C308.299 238.5 317.599 237.9 320.699 240.2C323.799 242.5 323.799 244.1 323.799 244.1L304.999 296.6C304.999 296.6 316.699 317.9 342.799 297.2L356.899 245.3C356.899 245.3 364.299 218.1 351.699 212.8C342.499 209.1 324.999 200.7 302.699 201.9Z" fill="white" stroke="#222222" stroke-width="2" stroke-miterlimit="10" stroke-linecap="round" stroke-linejoin="round"/>
<path d="M322.801 242.1C322.801 242.1 325.401 245.1 328.501 246C331.601 246.9 335.401 247.6 338.701 242.8" stroke="#222222" stroke-width="2" stroke-miterlimit="10" stroke-linecap="round" stroke-linejoin="round"/>
<path d="M403.6 158.3C403.6 158.3 412.5 153.3 417.9 144.2C417.9 144.2 428.7 183.3 448.7 187.4C448.7 187.4 459 179.8 464.6 182.4C470.2 185.1 468.3 192.5 467.5 195C466.7 197.5 457.8 204.1 448.9 198.7C448.9 198.7 451 222.5 457.8 223.1C464.6 223.7 494 211.1 507.8 234.5C507.8 234.5 441.2 269.9 372.4 245.3C372.4 245.3 384.2 217 420.6 224.8L417.7 213.8C417.7 213.8 389.4 216.9 394.5 183.6" fill="white"/>
<path d="M403.6 158.3C403.6 158.3 412.5 153.3 417.9 144.2C417.9 144.2 428.7 183.3 448.7 187.4C448.7 187.4 459 179.8 464.6 182.4C470.2 185.1 468.3 192.5 467.5 195C466.7 197.5 457.8 204.1 448.9 198.7C448.9 198.7 451 222.5 457.8 223.1C464.6 223.7 494 211.1 507.8 234.5C507.8 234.5 441.2 269.9 372.4 245.3C372.4 245.3 384.2 217 420.6 224.8L417.7 213.8C417.7 213.8 389.4 216.9 394.5 183.6" stroke="#222222" stroke-width="2" stroke-miterlimit="10" stroke-linecap="round" stroke-linejoin="round"/>
<path d="M422.1 232.1C422.1 232.1 420.1 223.2 419.9 222.4" stroke="#222222" stroke-width="2" stroke-miterlimit="10" stroke-linecap="round" stroke-linejoin="round"/>
<path d="M295.899 184.5C303.499 185 280.899 186.6 283.399 189.4C285.899 192.2 309.799 212.2 331.499 198.4C353.199 184.5 336.499 170.2 336.499 170.2C336.499 170.2 345.299 166.7 343.799 165.7C342.399 164.6 335.799 163.8 335.799 163.8C335.799 163.8 340.099 154.6 339.199 153.8C338.299 153 333.099 157.7 331.799 158.2C330.499 158.8 319.399 151.2 310.499 163.8L296.499 152.7C296.499 152.7 289.799 146.1 286.099 152.7C282.399 159.3 282.799 170.9 287.599 173.6C287.599 173.6 291.099 184.3 295.899 184.5Z" fill="white" stroke="#222222" stroke-width="2" stroke-miterlimit="10" stroke-linecap="round" stroke-linejoin="round"/>
<path d="M297.4 184.9C297.4 184.9 302.5 188.7 306.4 183.9" stroke="#222222" stroke-width="2" stroke-miterlimit="10" stroke-linecap="round" stroke-linejoin="round"/>
<path d="M309.701 163.1L317.301 169.1" stroke="#222222" stroke-width="2" stroke-miterlimit="10" stroke-linecap="round" stroke-linejoin="round"/>
<path d="M325.301 165.8C326.405 165.8 327.301 164.905 327.301 163.8C327.301 162.695 326.405 161.8 325.301 161.8C324.196 161.8 323.301 162.695 323.301 163.8C323.301 164.905 324.196 165.8 325.301 165.8Z" fill="#222222"/>
<path d="M308 87.8L311.6 135C311.6 135 332.8 132.5 338.1 132.1C343.3 131.7 368.8 132 370.5 132.2C372.2 132.4 380.7 133.1 380.8 123.2C380.9 113.3 379.7 77 379.7 77" fill="white"/>
<path d="M308 87.8L311.6 135C311.6 135 332.8 132.5 338.1 132.1C343.3 131.7 368.8 132 370.5 132.2C372.2 132.4 380.7 133.1 380.8 123.2C380.9 113.3 379.7 77 379.7 77" stroke="#D8C89B" stroke-width="2" stroke-miterlimit="10"/>
<path d="M370.099 77L311.299 80.7C311.299 80.7 305.699 81.6 309.099 85.3C312.499 89 345.699 111.6 345.699 111.6L372.499 84.5L370.099 77Z" fill="white" stroke="#D8C89B" stroke-width="2" stroke-miterlimit="10"/>
<path d="M253.5 106.1C250.9 106.3 237.1 106.5 239.6 121.5C242.1 136.5 242.5 135.1 242.5 135.1C242.5 135.1 248.4 147.6 265.2 138.4L280.2 150.9L275.9 136.2C275.9 136.2 298.2 139.2 297.9 126.7C297.6 114.2 296.8 109.2 296.8 109.2C296.8 109.2 294.3 98.7 281.9 100.8C269.5 102.9 257.3 105.7 253.5 106.1Z" fill="white" stroke="#D8C89B" stroke-width="2" stroke-miterlimit="10"/>
<path d="M426.1 192.4C433.832 192.4 440.1 186.132 440.1 178.4C440.1 170.668 433.832 164.4 426.1 164.4C418.368 164.4 412.1 170.668 412.1 178.4C412.1 186.132 418.368 192.4 426.1 192.4Z" fill="white" stroke="#222222" stroke-width="2" stroke-miterlimit="10" stroke-linecap="round" stroke-linejoin="round"/>
<path d="M396.8 181.5C403.649 181.5 409.2 175.948 409.2 169.1C409.2 162.252 403.649 156.7 396.8 156.7C389.952 156.7 384.4 162.252 384.4 169.1C384.4 175.948 389.952 181.5 396.8 181.5Z" fill="white" stroke="#222222" stroke-width="2" stroke-miterlimit="10" stroke-linecap="round" stroke-linejoin="round"/>
<path d="M403.9 195.7C403.9 195.7 410.5 197.8 415.1 192.4" stroke="#222222" stroke-width="2" stroke-miterlimit="10" stroke-linecap="round" stroke-linejoin="round"/>
<path d="M415.1 164.5C415.1 164.5 420.7 158.5 431.8 160.8" stroke="#222222" stroke-width="2" stroke-miterlimit="10" stroke-linecap="round" stroke-linejoin="round"/>
<path d="M417.699 213.9C417.699 213.9 428.199 214.6 436.099 206.8" stroke="#222222" stroke-width="2" stroke-miterlimit="10" stroke-linecap="round" stroke-linejoin="round"/>
<path d="M453.799 194.3L462.399 190" stroke="#222222" stroke-width="2" stroke-miterlimit="10" stroke-linecap="round" stroke-linejoin="round"/>
<path d="M429.065 178.446C429.52 175.778 428.609 173.397 427.03 173.128C425.451 172.859 423.802 174.803 423.347 177.471C422.892 180.138 423.803 182.519 425.382 182.789C426.961 183.058 428.61 181.113 429.065 178.446Z" fill="#222222"/>
<path d="M405.162 171.97C405.953 169.382 405.353 166.905 403.821 166.436C402.29 165.968 400.407 167.687 399.616 170.275C398.825 172.863 399.425 175.34 400.957 175.808C402.489 176.276 404.371 174.558 405.162 171.97Z" fill="#222222"/>
</svg>
