<svg width="54" height="67" viewBox="0 0 54 67" fill="none" xmlns="http://www.w3.org/2000/svg">
<path d="M1.1959 62.4577L1 56.0917C1.11194 53.923 1.22388 51.7544 1.46642 50.0904C1.70896 48.4265 2.0821 47.2674 2.63716 45.9586C3.19222 44.6499 3.92917 43.1916 4.71745 41.8736C5.50574 40.5555 6.3453 39.3777 7.47408 38.0736C8.60287 36.7696 10.0208 35.3394 11.0469 34.2129C12.0731 33.0865 12.7074 32.2639 13.2252 31.2684C13.7429 30.2728 14.144 29.1044 14.186 27.978C14.228 26.8516 13.9109 25.7672 13.2719 24.5146C12.6329 23.2619 11.6721 21.8411 10.8791 20.294C10.0861 18.7469 9.46113 17.0736 9.30251 15.3069C9.1439 13.5401 9.45174 11.6799 9.7316 9.89906C10.0115 8.11827 10.2633 6.41697 10.8417 4.9493C11.4201 3.48163 12.325 2.24773 12.9034 1.58868C13.4818 0.929627 13.7337 0.845497 13.8129 1.22883C13.8922 1.61217 13.7989 2.46281 13.7896 3.71078C13.7802 4.95876 13.8549 6.60396 14.1441 7.93138C14.4333 9.25881 14.9371 10.2684 15.8466 11.2312C16.7562 12.194 18.0715 13.1101 19.4615 14.0075C20.8515 14.9049 22.3161 15.7836 23.4588 16.6062C24.6016 17.4289 25.4225 18.1954 25.9682 18.9853C26.5139 19.7752 26.7844 20.5885 26.9057 21.3737C27.0269 22.1589 26.9989 22.9161 26.817 23.7433C26.6351 24.5706 26.2993 25.468 26.108 26.0195C25.9168 26.5711 25.8701 26.7767 25.8282 26.959C25.7862 27.1413 25.7489 27.3002 26.3832 26.9309C27.0176 26.5616 28.3236 25.6642 29.3032 25.1501C30.2827 24.636 30.9357 24.5051 31.7053 24.4537C32.475 24.4023 33.3612 24.4303 34.0842 24.594C34.8072 24.7576 35.3669 25.0567 36.2298 25.7345C37.0927 26.4122 38.2587 27.4685 39.0796 28.2911C39.9006 29.1138 40.3763 29.7027 40.8241 30.1186C41.2719 30.5346 41.6917 30.7776 42.2887 31.03C42.8858 31.2824 43.66 31.5441 44.3503 31.7732C45.0407 32.0022 45.647 32.1985 46.3234 32.3761C46.9997 32.5537 47.746 32.7126 48.357 32.7967C48.968 32.8809 49.4438 32.8902 50.204 32.8528C50.9643 32.8154 52.0091 32.7313 52.2889 33.0258C52.5687 33.3203 52.0836 33.9933 51.1461 34.9702C50.2086 35.947 48.8186 37.2276 47.2561 38.2372C45.6935 39.2468 43.9585 39.9853 41.9715 40.2377C39.9845 40.4901 37.7456 40.2564 35.5114 39.761C33.2772 39.2655 31.0477 38.5084 29.0467 38.1017C27.0457 37.6951 25.2732 37.639 23.9252 37.8166C22.5772 37.9942 21.6537 38.4055 21.0286 39.0832C20.4035 39.761 20.0771 40.7051 19.8625 41.5278C19.6479 42.3504 19.5453 43.0515 19.6946 44.3369C19.8439 45.6223 20.245 47.4918 20.4269 49.3801C20.6088 51.2684 20.5715 53.1753 20.3476 54.8673C20.1237 56.5593 19.7132 58.0362 19.3261 59.3216C18.9389 60.6069 18.5751 61.7006 18.2999 62.4624C18.0247 63.2243 17.8382 63.6543 17.619 63.9674C17.3998 64.2805 17.1479 64.4768 16.1031 64.7433C15.0583 65.0097 13.2206 65.3462 11.131 65.3696C9.04137 65.393 6.69993 65.1032 5.12805 64.8414C3.55617 64.5797 2.75392 64.346 2.22681 63.9534C1.69971 63.5609 1.44783 63.0094 1.32187 62.7335C1.1959 62.4577 1.1959 62.4577 1.1959 62.4577V62.4577Z" fill="#D8C89B" stroke="#D8C89B" stroke-width="1.465" stroke-linecap="round"/>
</svg>
