<svg width="54" height="67" viewBox="0 0 54 67" fill="none" xmlns="http://www.w3.org/2000/svg">
<path d="M1.79537 62.4577L1.59961 56.0917C1.71147 53.923 1.82333 51.7544 2.06571 50.0904C2.30808 48.4265 2.68096 47.2674 3.23563 45.9586C3.79031 44.6499 4.52674 43.1916 5.31448 41.8736C6.10221 40.5555 6.94119 39.3777 8.06919 38.0736C9.19719 36.7696 10.6141 35.3394 11.6396 34.2129C12.665 33.0865 13.2989 32.2639 13.8163 31.2684C14.3337 30.2728 14.7345 29.1044 14.7765 27.978C14.8185 26.8516 14.5015 25.7672 13.863 24.5146C13.2244 23.2619 12.2642 21.8411 11.4718 20.294C10.6794 18.7469 10.0549 17.0736 9.89635 15.3069C9.73784 13.5401 10.0455 11.6799 10.3251 9.89906C10.6048 8.11827 10.8565 6.41697 11.4345 4.9493C12.0125 3.48163 12.9167 2.24773 13.4947 1.58868C14.0727 0.929627 14.3244 0.845497 14.4036 1.22883C14.4828 1.61217 14.3896 2.46281 14.3803 3.71078C14.371 4.95876 14.4455 6.60396 14.7346 7.93138C15.0236 9.25881 15.527 10.2684 16.4359 11.2312C17.3449 12.194 18.6593 13.1101 20.0483 14.0075C21.4373 14.9049 22.9009 15.7836 24.0428 16.6062C25.1848 17.4289 26.0051 18.1954 26.5504 18.9853C27.0957 19.7752 27.3661 20.5885 27.4872 21.3737C27.6084 22.1589 27.5804 22.9161 27.3986 23.7433C27.2169 24.5706 26.8813 25.468 26.6902 26.0195C26.4991 26.5711 26.4524 26.7767 26.4105 26.959C26.3685 27.1413 26.3313 27.3002 26.9652 26.9309C27.5991 26.5616 28.9042 25.6642 29.8831 25.1501C30.8619 24.636 31.5145 24.5051 32.2836 24.4537C33.0527 24.4023 33.9383 24.4303 34.6608 24.594C35.3832 24.7576 35.9426 25.0567 36.8049 25.7345C37.6672 26.4122 38.8324 27.4685 39.6527 28.2911C40.4731 29.1138 40.9485 29.7027 41.396 30.1186C41.8435 30.5346 42.263 30.7776 42.8596 31.03C43.4562 31.2824 44.2299 31.5441 44.9198 31.7732C45.6096 32.0022 46.2156 32.1985 46.8914 32.3761C47.5673 32.5537 48.313 32.7126 48.9236 32.7967C49.5342 32.8809 50.0097 32.8902 50.7694 32.8528C51.5292 32.8154 52.5732 32.7313 52.8528 33.0258C53.1324 33.3203 52.6477 33.9933 51.7108 34.9702C50.7739 35.947 49.385 37.2276 47.8235 38.2372C46.2621 39.2468 44.5282 39.9853 42.5426 40.2377C40.557 40.4901 38.3197 40.2564 36.087 39.761C33.8544 39.2655 31.6264 38.5084 29.6268 38.1017C27.6271 37.6951 25.856 37.639 24.5089 37.8166C23.1618 37.9942 22.2389 38.4055 21.6143 39.0832C20.9897 39.761 20.6634 40.7051 20.449 41.5278C20.2346 42.3504 20.132 43.0515 20.2812 44.3369C20.4304 45.6223 20.8312 47.4918 21.013 49.3801C21.1948 51.2684 21.1575 53.1753 20.9337 54.8673C20.71 56.5593 20.2998 58.0362 19.9129 59.3216C19.5261 60.6069 19.1625 61.7006 18.8875 62.4624C18.6125 63.2243 18.4261 63.6543 18.207 63.9674C17.988 64.2805 17.7363 64.4768 16.6922 64.7433C15.6481 65.0097 13.8117 65.3462 11.7235 65.3696C9.63538 65.393 7.29557 65.1032 5.72478 64.8414C4.154 64.5797 3.35231 64.346 2.82557 63.9534C2.29883 63.5609 2.04713 63.0094 1.92125 62.7335C1.79537 62.4577 1.79537 62.4577 1.79537 62.4577V62.4577Z" fill="#D8C89B" stroke="#D8C89B" stroke-width="1.465" stroke-linecap="round"/>
</svg>
